<svg xmlns="http://www.w3.org/2000/svg" version="1.1" xmlns:xlink="http://www.w3.org/1999/xlink" width="200" height="200"><svg xmlns="http://www.w3.org/2000/svg" version="1.1" xmlns:xlink="http://www.w3.org/1999/xlink" viewBox="0 0 200 200"><rect width="200" height="200" fill="url('#gradient')"></rect><defs><linearGradient id="SvgjsLinearGradient1001" gradientTransform="rotate(45 0.5 0.5)"><stop offset="0%" stop-color="#ded79e"></stop><stop offset="100%" stop-color="#6c6def"></stop></linearGradient></defs><g><g fill="#3a3938" transform="matrix(5.215619694397284,0,0,5.215619694397284,8.176588801859992,137.08243159001063)" stroke="#879061" stroke-width="0.2"><path d="M12.24-14.22L12.24-11.57L7.97-11.57L7.97 0L4.54 0L4.54-11.57L0.35-11.57L0.35-14.22L12.24-14.22ZM22.86-14.22L24.84-5.30L26.47-14.22L29.87-14.22L26.86 0L23.30 0L21.40-8.11L19.53 0L15.99 0L12.96-14.22L16.37-14.22L18.00-5.30L19.95-14.22L22.86-14.22ZM34.86-14.22L34.86 0L31.45 0L31.45-14.22L34.86-14.22Z"></path></g></g></svg><style>@media (prefers-color-scheme: light) { :root { filter: contrast(1) brightness(1); } }
@media (prefers-color-scheme: dark) { :root { filter: none; } }
</style></svg>